<?xml version="1.0" encoding="UTF-8" standalone="no"?><!DOCTYPE svg PUBLIC "-//W3C//DTD SVG 1.1//EN" "http://www.w3.org/Graphics/SVG/1.1/DTD/svg11.dtd"><svg width="100%" height="100%" viewBox="0 0 10 10" version="1.1" xmlns="http://www.w3.org/2000/svg" xmlns:xlink="http://www.w3.org/1999/xlink" xml:space="preserve" xmlns:serif="http://www.serif.com/" style="fill-rule:evenodd;clip-rule:evenodd;stroke-linejoin:round;stroke-miterlimit:1.41421;"><g><path d="M2.025,8.98c-0.49,0 -0.888,-0.398 -0.888,-0.888c0,-1.446 0,-4.146 0,-4.146l1.777,0c0,0 0,2.7 0,4.146c0,0.49 -0.398,0.888 -0.888,0.888c0,0 -0.001,0 -0.001,0Z" style="fill:#1b1e24;"/><path d="M1.137,3.946c0,1.959 1.591,3.55 3.551,3.55c1.959,0 3.55,-1.591 3.55,-3.55c0,-1.96 -1.591,-3.551 -3.551,-3.551c-1.959,0 -3.55,1.591 -3.55,3.551Zm1.775,0c0,0.979 0.796,1.775 1.775,1.775c0.98,0 1.776,-0.796 1.776,-1.775c0,-0.98 -0.796,-1.776 -1.776,-1.776c-0.979,0 -1.775,0.796 -1.775,1.776Z" style="fill:#1b1e24;"/></g></svg>