<?xml version="1.0" encoding="UTF-8" standalone="no"?><!DOCTYPE svg PUBLIC "-//W3C//DTD SVG 1.1//EN" "http://www.w3.org/Graphics/SVG/1.1/DTD/svg11.dtd"><svg width="100%" height="100%" viewBox="0 0 192 192" version="1.1" xmlns="http://www.w3.org/2000/svg" xmlns:xlink="http://www.w3.org/1999/xlink" xml:space="preserve" xmlns:serif="http://www.serif.com/" style="fill-rule:evenodd;clip-rule:evenodd;stroke-linejoin:round;stroke-miterlimit:1.41421;"><g><path d="M142.136,122.362c0,-0.212 0.007,-0.421 0.021,-0.627c0.008,-0.118 -0.081,-0.22 -0.198,-0.228c-0.118,-0.009 -0.221,0.08 -0.229,0.198c-0.015,0.217 -0.022,0.436 -0.022,0.657c0,0.118 0.096,0.214 0.214,0.214c0.118,0 0.214,-0.096 0.214,-0.214Z" style="fill:#3b469d;fill-rule:nonzero;"/><path d="M142.329,120.495c0.086,-0.412 0.201,-0.814 0.342,-1.204c0.04,-0.111 -0.018,-0.233 -0.128,-0.274c-0.112,-0.04 -0.234,0.018 -0.274,0.129c-0.148,0.408 -0.268,0.829 -0.359,1.261c-0.024,0.116 0.05,0.229 0.166,0.253c0.115,0.024 0.229,-0.05 0.253,-0.165Zm0.848,-2.348c0.195,-0.37 0.416,-0.725 0.659,-1.063c0.069,-0.096 0.048,-0.229 -0.048,-0.299c-0.096,-0.068 -0.23,-0.047 -0.298,0.049c-0.255,0.354 -0.486,0.726 -0.691,1.113c-0.055,0.105 -0.016,0.234 0.089,0.289c0.104,0.056 0.234,0.016 0.289,-0.089Zm1.459,-2.025c0.288,-0.302 0.597,-0.583 0.924,-0.843c0.093,-0.073 0.108,-0.208 0.035,-0.3c-0.074,-0.093 -0.208,-0.108 -0.301,-0.035c-0.342,0.272 -0.666,0.567 -0.967,0.883c-0.082,0.085 -0.079,0.221 0.006,0.302c0.086,0.082 0.222,0.079 0.303,-0.007Zm1.955,-1.551c0.358,-0.21 0.731,-0.397 1.118,-0.558c0.109,-0.045 0.161,-0.17 0.116,-0.279c-0.046,-0.109 -0.17,-0.161 -0.28,-0.116c-0.405,0.168 -0.796,0.364 -1.171,0.585c-0.102,0.06 -0.136,0.191 -0.076,0.293c0.06,0.102 0.191,0.135 0.293,0.075Zm2.304,-0.956c0.4,-0.103 0.81,-0.18 1.229,-0.228c0.118,-0.014 0.201,-0.12 0.188,-0.237c-0.013,-0.118 -0.12,-0.202 -0.237,-0.189c-0.439,0.051 -0.869,0.132 -1.288,0.24c-0.114,0.03 -0.182,0.147 -0.153,0.261c0.03,0.114 0.146,0.183 0.261,0.153Zm2.479,-0.286c0.423,0.009 0.839,0.048 1.245,0.113c0.117,0.019 0.227,-0.061 0.245,-0.177c0.019,-0.117 -0.06,-0.227 -0.177,-0.245c-0.426,-0.069 -0.861,-0.109 -1.304,-0.119c-0.118,-0.003 -0.216,0.091 -0.218,0.209c-0.003,0.118 0.091,0.216 0.209,0.219Zm2.463,0.397c0.402,0.124 0.791,0.275 1.167,0.451c0.107,0.051 0.234,0.005 0.284,-0.102c0.05,-0.107 0.004,-0.235 -0.102,-0.285c-0.394,-0.184 -0.802,-0.343 -1.223,-0.472c-0.113,-0.035 -0.233,0.028 -0.268,0.141c-0.034,0.113 0.029,0.233 0.142,0.267Zm2.26,1.061c0.35,0.228 0.684,0.48 0.998,0.753c0.089,0.078 0.224,0.068 0.302,-0.021c0.077,-0.089 0.068,-0.224 -0.021,-0.302c-0.33,-0.286 -0.679,-0.55 -1.046,-0.789c-0.099,-0.064 -0.231,-0.037 -0.296,0.063c-0.064,0.098 -0.037,0.231 0.063,0.296Zm1.884,1.637c0.273,0.314 0.526,0.646 0.755,0.996c0.065,0.099 0.197,0.126 0.296,0.062c0.099,-0.065 0.126,-0.197 0.062,-0.296c-0.24,-0.366 -0.505,-0.715 -0.791,-1.043c-0.078,-0.09 -0.213,-0.099 -0.302,-0.021c-0.089,0.077 -0.098,0.213 -0.02,0.302Zm1.365,2.087c0.177,0.375 0.329,0.764 0.454,1.165c0.035,0.113 0.155,0.176 0.268,0.141c0.112,-0.036 0.175,-0.155 0.14,-0.268c-0.131,-0.42 -0.29,-0.828 -0.475,-1.221c-0.05,-0.107 -0.178,-0.152 -0.285,-0.102c-0.106,0.05 -0.152,0.178 -0.102,0.285Zm0.741,2.382c0.066,0.406 0.105,0.822 0.116,1.245c0.003,0.118 0.101,0.212 0.219,0.209c0.118,-0.003 0.211,-0.101 0.208,-0.219c-0.01,-0.443 -0.051,-0.879 -0.121,-1.304c-0.019,-0.117 -0.129,-0.196 -0.246,-0.177c-0.116,0.019 -0.195,0.129 -0.176,0.246Zm0.061,2.495c-0.048,0.419 -0.124,0.83 -0.226,1.23c-0.03,0.114 0.039,0.231 0.154,0.26c0.114,0.03 0.231,-0.039 0.26,-0.154c0.108,-0.419 0.187,-0.849 0.237,-1.288c0.013,-0.117 -0.071,-0.224 -0.188,-0.237c-0.118,-0.013 -0.224,0.072 -0.237,0.189Zm-0.622,2.417c-0.16,0.387 -0.346,0.761 -0.556,1.12c-0.06,0.102 -0.026,0.233 0.076,0.293c0.102,0.059 0.233,0.025 0.293,-0.077c0.22,-0.375 0.415,-0.767 0.583,-1.173c0.045,-0.109 -0.007,-0.234 -0.116,-0.28c-0.11,-0.045 -0.235,0.008 -0.28,0.117Zm-1.262,2.153c-0.259,0.327 -0.54,0.637 -0.841,0.926c-0.085,0.081 -0.088,0.216 -0.007,0.302c0.082,0.085 0.218,0.088 0.303,0.006c0.315,-0.302 0.61,-0.626 0.881,-0.969c0.073,-0.093 0.057,-0.227 -0.036,-0.301c-0.092,-0.073 -0.227,-0.057 -0.3,0.036Zm-1.802,1.727c-0.336,0.244 -0.691,0.465 -1.06,0.662c-0.105,0.055 -0.145,0.184 -0.089,0.289c0.055,0.104 0.185,0.144 0.289,0.088c0.387,-0.206 0.759,-0.437 1.112,-0.692c0.095,-0.07 0.116,-0.203 0.047,-0.299c-0.069,-0.096 -0.203,-0.117 -0.299,-0.048Zm-2.203,1.17c-0.132,0.048 -0.266,0.093 -0.402,0.135c-0.261,0.082 -0.529,0.151 -0.8,0.209c-0.115,0.024 -0.189,0.138 -0.165,0.254c0.025,0.115 0.139,0.189 0.254,0.164c0.284,-0.06 0.564,-0.133 0.838,-0.218c0.142,-0.045 0.283,-0.092 0.421,-0.142c0.112,-0.041 0.169,-0.164 0.128,-0.274c-0.04,-0.112 -0.163,-0.169 -0.274,-0.128Z" style="fill:#3b469d;fill-rule:nonzero;"/><path d="M151.798,131.375c-0.208,0.014 -0.417,0.021 -0.627,0.021c-0.119,0 -0.214,0.096 -0.214,0.214c0,0.118 0.095,0.214 0.214,0.214c0.22,0 0.439,-0.008 0.655,-0.022c0.118,-0.008 0.207,-0.11 0.199,-0.228c-0.007,-0.118 -0.109,-0.207 -0.227,-0.199Z" style="fill:#3b469d;fill-rule:nonzero;"/><path d="M29.183,94.143c0.193,-0.083 0.388,-0.159 0.584,-0.228c0.111,-0.039 0.17,-0.16 0.131,-0.272c-0.039,-0.111 -0.161,-0.17 -0.272,-0.132c-0.206,0.072 -0.41,0.152 -0.612,0.239c-0.109,0.047 -0.159,0.173 -0.112,0.281c0.046,0.108 0.172,0.159 0.281,0.112Z" style="fill:#3b469d;fill-rule:nonzero;"/><path d="M30.974,93.583c0.413,-0.083 0.827,-0.136 1.24,-0.161c0.118,-0.006 0.208,-0.108 0.201,-0.226c-0.007,-0.118 -0.108,-0.208 -0.226,-0.201c-0.433,0.026 -0.867,0.081 -1.3,0.169c-0.116,0.023 -0.191,0.136 -0.167,0.252c0.023,0.116 0.136,0.19 0.252,0.167Zm2.491,-0.147c0.417,0.033 0.83,0.096 1.237,0.186c0.115,0.025 0.229,-0.048 0.255,-0.163c0.025,-0.115 -0.047,-0.229 -0.162,-0.255c-0.426,-0.095 -0.859,-0.16 -1.296,-0.195c-0.118,-0.01 -0.221,0.078 -0.23,0.196c-0.01,0.118 0.078,0.221 0.196,0.231Zm2.437,0.54c0.391,0.146 0.771,0.318 1.139,0.516c0.104,0.056 0.234,0.017 0.29,-0.087c0.056,-0.104 0.017,-0.233 -0.087,-0.289c-0.385,-0.208 -0.784,-0.388 -1.194,-0.541c-0.11,-0.041 -0.233,0.016 -0.275,0.126c-0.041,0.111 0.016,0.234 0.127,0.275Zm2.197,1.184c0.334,0.246 0.654,0.515 0.954,0.808c0.085,0.082 0.221,0.08 0.303,-0.005c0.082,-0.084 0.081,-0.22 -0.004,-0.302c-0.315,-0.306 -0.65,-0.589 -1.001,-0.846c-0.095,-0.07 -0.229,-0.049 -0.299,0.046c-0.069,0.095 -0.049,0.229 0.047,0.299Zm1.788,1.739c0.253,0.327 0.486,0.674 0.695,1.039c0.06,0.103 0.19,0.138 0.293,0.079c0.102,-0.058 0.137,-0.189 0.079,-0.291c-0.22,-0.384 -0.464,-0.747 -0.729,-1.089c-0.073,-0.093 -0.207,-0.11 -0.3,-0.038c-0.094,0.073 -0.111,0.207 -0.038,0.3Zm1.242,2.165c0.159,0.392 0.288,0.79 0.388,1.19c0.029,0.114 0.145,0.184 0.259,0.155c0.115,-0.029 0.185,-0.145 0.156,-0.26c-0.105,-0.418 -0.24,-0.834 -0.406,-1.245c-0.044,-0.11 -0.169,-0.163 -0.279,-0.118c-0.109,0.044 -0.162,0.169 -0.118,0.278Zm0.608,2.421c0.033,0.318 0.05,0.637 0.05,0.954c0,0.099 -0.001,0.198 -0.005,0.296c-0.004,0.118 0.089,0.217 0.207,0.221c0.118,0.004 0.217,-0.089 0.221,-0.207c0.004,-0.103 0.005,-0.206 0.005,-0.31c0,-0.332 -0.017,-0.666 -0.053,-1c-0.013,-0.117 -0.118,-0.202 -0.236,-0.19c-0.117,0.013 -0.202,0.119 -0.189,0.236Zm-0.083,2.494c-0.071,0.412 -0.171,0.818 -0.298,1.215c-0.036,0.113 0.026,0.233 0.139,0.269c0.112,0.036 0.233,-0.026 0.269,-0.138c0.133,-0.416 0.237,-0.841 0.312,-1.272c0.02,-0.117 -0.058,-0.228 -0.174,-0.248c-0.117,-0.02 -0.227,0.058 -0.248,0.174Zm-0.76,2.377c-0.181,0.376 -0.387,0.74 -0.618,1.088c-0.065,0.099 -0.038,0.232 0.06,0.297c0.099,0.065 0.232,0.038 0.297,-0.06c0.242,-0.366 0.458,-0.746 0.647,-1.139c0.051,-0.107 0.006,-0.235 -0.101,-0.286c-0.106,-0.051 -0.234,-0.006 -0.285,0.1Zm-1.379,2.08c-0.275,0.311 -0.573,0.604 -0.892,0.877c-0.09,0.076 -0.101,0.211 -0.024,0.301c0.077,0.09 0.212,0.101 0.302,0.024c0.334,-0.286 0.646,-0.593 0.934,-0.918c0.078,-0.089 0.07,-0.224 -0.019,-0.302c-0.088,-0.079 -0.223,-0.07 -0.302,0.018l0.001,0Zm-1.897,1.62c-0.347,0.222 -0.714,0.422 -1.099,0.599c-0.107,0.049 -0.154,0.176 -0.105,0.284c0.049,0.107 0.176,0.154 0.284,0.105c0.402,-0.185 0.786,-0.395 1.15,-0.626c0.1,-0.064 0.129,-0.196 0.065,-0.296c-0.063,-0.1 -0.196,-0.129 -0.295,-0.066Zm-2.269,1.042c-0.404,0.122 -0.812,0.214 -1.22,0.277c-0.116,0.018 -0.196,0.127 -0.178,0.244c0.018,0.117 0.127,0.197 0.244,0.178c0.428,-0.066 0.854,-0.162 1.278,-0.29c0.112,-0.034 0.177,-0.154 0.142,-0.266c-0.033,-0.113 -0.153,-0.178 -0.266,-0.143Zm-2.466,0.382c-0.043,0 -0.086,0.001 -0.128,0.001c-0.376,0 -0.751,-0.024 -1.121,-0.07c-0.117,-0.015 -0.224,0.068 -0.239,0.185c-0.015,0.118 0.069,0.225 0.186,0.239c0.387,0.049 0.78,0.074 1.174,0.074c0.045,0 0.089,-0.001 0.134,-0.001c0.118,-0.002 0.213,-0.099 0.211,-0.217c-0.002,-0.118 -0.099,-0.213 -0.217,-0.211Zm-2.477,-0.311c-0.403,-0.108 -0.798,-0.244 -1.182,-0.407c-0.109,-0.046 -0.234,0.005 -0.281,0.113c-0.046,0.109 0.005,0.235 0.114,0.281c0.402,0.17 0.816,0.313 1.238,0.427c0.114,0.031 0.231,-0.037 0.262,-0.151c0.031,-0.114 -0.037,-0.232 -0.151,-0.263Zm-2.298,-0.973c-0.357,-0.214 -0.7,-0.452 -1.026,-0.714c-0.092,-0.074 -0.227,-0.06 -0.301,0.032c-0.074,0.092 -0.059,0.227 0.033,0.301c0.341,0.274 0.701,0.524 1.075,0.748c0.101,0.061 0.233,0.027 0.293,-0.074c0.061,-0.101 0.028,-0.233 -0.074,-0.293Zm-1.944,-1.564c-0.096,-0.102 -0.189,-0.206 -0.281,-0.313c-0.179,-0.209 -0.349,-0.428 -0.51,-0.656c-0.068,-0.096 -0.201,-0.119 -0.298,-0.051c-0.097,0.068 -0.119,0.201 -0.051,0.298c0.168,0.239 0.347,0.468 0.534,0.687c0.096,0.112 0.194,0.221 0.294,0.328c0.081,0.086 0.216,0.09 0.303,0.009c0.086,-0.08 0.09,-0.216 0.009,-0.302Z" style="fill:#3b469d;fill-rule:nonzero;"/><path d="M24.716,106.578c-0.094,-0.184 -0.184,-0.373 -0.267,-0.567c-0.046,-0.108 -0.172,-0.159 -0.28,-0.112c-0.109,0.046 -0.159,0.172 -0.113,0.28c0.087,0.204 0.181,0.402 0.28,0.595c0.054,0.105 0.183,0.146 0.288,0.092c0.105,-0.054 0.147,-0.183 0.092,-0.288Z" style="fill:#3b469d;fill-rule:nonzero;"/><path d="M95.644,44.864c0.193,-0.083 0.389,-0.16 0.584,-0.228c0.112,-0.039 0.17,-0.161 0.131,-0.273c-0.039,-0.112 -0.161,-0.17 -0.272,-0.131c-0.205,0.072 -0.41,0.152 -0.612,0.239c-0.109,0.046 -0.159,0.172 -0.112,0.281c0.046,0.108 0.172,0.158 0.281,0.112Z" style="fill:#3b469d;fill-rule:nonzero;"/><path d="M97.435,44.304c0.413,-0.083 0.827,-0.136 1.24,-0.161c0.118,-0.007 0.208,-0.108 0.201,-0.226c-0.007,-0.118 -0.108,-0.208 -0.226,-0.201c-0.433,0.026 -0.867,0.082 -1.3,0.169c-0.116,0.023 -0.19,0.136 -0.167,0.252c0.023,0.115 0.136,0.19 0.252,0.167Zm2.491,-0.148c0.417,0.033 0.831,0.096 1.237,0.186c0.115,0.026 0.229,-0.047 0.255,-0.162c0.026,-0.116 -0.047,-0.23 -0.163,-0.255c-0.425,-0.095 -0.858,-0.16 -1.295,-0.195c-0.117,-0.01 -0.221,0.078 -0.23,0.196c-0.01,0.118 0.078,0.221 0.196,0.23Zm2.436,0.541c0.391,0.146 0.772,0.318 1.14,0.516c0.104,0.056 0.233,0.017 0.29,-0.087c0.056,-0.104 0.017,-0.233 -0.087,-0.289c-0.385,-0.208 -0.784,-0.388 -1.193,-0.541c-0.111,-0.041 -0.234,0.015 -0.275,0.126c-0.041,0.11 0.015,0.234 0.125,0.275Zm2.197,1.184c0.336,0.245 0.655,0.515 0.956,0.807c0.084,0.082 0.219,0.081 0.302,-0.004c0.082,-0.085 0.08,-0.22 -0.004,-0.302c-0.315,-0.307 -0.65,-0.589 -1,-0.846c-0.096,-0.07 -0.23,-0.049 -0.299,0.046c-0.07,0.095 -0.05,0.229 0.046,0.299l-0.001,0Zm1.789,1.739c0.253,0.326 0.486,0.673 0.696,1.039c0.058,0.103 0.189,0.138 0.291,0.079c0.103,-0.058 0.139,-0.189 0.08,-0.292c-0.22,-0.383 -0.464,-0.746 -0.729,-1.088c-0.073,-0.093 -0.207,-0.11 -0.3,-0.038c-0.094,0.072 -0.111,0.207 -0.038,0.3Zm1.242,2.165c0.159,0.392 0.288,0.789 0.388,1.189c0.029,0.115 0.145,0.184 0.26,0.156c0.114,-0.029 0.184,-0.145 0.155,-0.26c-0.105,-0.419 -0.24,-0.835 -0.406,-1.246c-0.045,-0.109 -0.169,-0.162 -0.279,-0.118c-0.109,0.044 -0.162,0.169 -0.118,0.279Zm0.607,2.42c0.035,0.319 0.051,0.638 0.051,0.955c0,0.099 -0.001,0.197 -0.004,0.296c-0.004,0.118 0.088,0.217 0.206,0.221c0.118,0.003 0.217,-0.089 0.221,-0.207c0.003,-0.103 0.005,-0.207 0.005,-0.31c0,-0.332 -0.018,-0.666 -0.053,-1c-0.013,-0.117 -0.118,-0.203 -0.236,-0.19c-0.117,0.013 -0.202,0.118 -0.19,0.235Zm-0.081,2.495c-0.072,0.412 -0.172,0.818 -0.298,1.215c-0.037,0.112 0.025,0.233 0.138,0.269c0.112,0.036 0.233,-0.026 0.269,-0.139c0.133,-0.415 0.237,-0.841 0.312,-1.272c0.02,-0.116 -0.058,-0.227 -0.174,-0.247c-0.116,-0.02 -0.227,0.058 -0.247,0.174Zm-0.761,2.377c-0.18,0.376 -0.387,0.739 -0.618,1.088c-0.065,0.098 -0.038,0.231 0.06,0.296c0.099,0.066 0.231,0.039 0.297,-0.06c0.242,-0.365 0.458,-0.746 0.647,-1.139c0.05,-0.106 0.006,-0.234 -0.101,-0.285c-0.106,-0.051 -0.234,-0.006 -0.285,0.1Zm-1.379,2.08c-0.275,0.31 -0.573,0.603 -0.892,0.876c-0.09,0.077 -0.1,0.212 -0.024,0.302c0.077,0.09 0.212,0.1 0.302,0.023c0.334,-0.285 0.646,-0.592 0.934,-0.918c0.078,-0.088 0.07,-0.223 -0.018,-0.302c-0.089,-0.078 -0.224,-0.07 -0.302,0.019Zm-1.897,1.62c-0.347,0.222 -0.714,0.422 -1.099,0.598c-0.107,0.05 -0.154,0.176 -0.105,0.284c0.049,0.107 0.176,0.155 0.284,0.105c0.402,-0.184 0.786,-0.394 1.15,-0.626c0.099,-0.063 0.129,-0.196 0.065,-0.295c-0.063,-0.1 -0.195,-0.129 -0.295,-0.066Zm-2.269,1.041c-0.404,0.122 -0.812,0.214 -1.22,0.278c-0.117,0.018 -0.197,0.127 -0.178,0.244c0.017,0.117 0.127,0.196 0.244,0.178c0.427,-0.066 0.854,-0.162 1.277,-0.29c0.114,-0.034 0.177,-0.154 0.144,-0.267c-0.035,-0.113 -0.154,-0.177 -0.267,-0.143Zm-2.467,0.383c-0.042,0 -0.085,0.001 -0.128,0.001c-0.376,0 -0.75,-0.024 -1.12,-0.071c-0.117,-0.014 -0.224,0.069 -0.239,0.186c-0.015,0.117 0.068,0.224 0.186,0.239c0.388,0.049 0.779,0.073 1.173,0.073c0.045,0 0.09,0 0.135,-0.001c0.118,-0.001 0.213,-0.099 0.211,-0.217c-0.002,-0.118 -0.099,-0.212 -0.218,-0.21Zm-2.476,-0.311c-0.403,-0.108 -0.798,-0.244 -1.182,-0.407c-0.109,-0.047 -0.235,0.004 -0.28,0.113c-0.047,0.109 0.004,0.234 0.113,0.281c0.402,0.17 0.816,0.313 1.238,0.426c0.114,0.031 0.232,-0.036 0.262,-0.151c0.031,-0.114 -0.036,-0.231 -0.151,-0.262Zm-2.297,-0.974c-0.358,-0.213 -0.701,-0.451 -1.027,-0.714c-0.092,-0.074 -0.227,-0.059 -0.301,0.033c-0.074,0.092 -0.059,0.227 0.033,0.301c0.342,0.274 0.701,0.524 1.075,0.748c0.102,0.06 0.233,0.027 0.293,-0.074c0.061,-0.102 0.028,-0.233 -0.073,-0.294Zm-1.945,-1.563c-0.095,-0.102 -0.189,-0.206 -0.281,-0.313c-0.178,-0.209 -0.349,-0.428 -0.509,-0.656c-0.069,-0.097 -0.202,-0.119 -0.299,-0.051c-0.096,0.068 -0.119,0.201 -0.051,0.298c0.168,0.238 0.347,0.467 0.534,0.687c0.096,0.111 0.194,0.221 0.295,0.328c0.08,0.086 0.216,0.09 0.302,0.009c0.086,-0.081 0.09,-0.216 0.009,-0.302Z" style="fill:#3b469d;fill-rule:nonzero;"/><path d="M91.178,57.299c-0.095,-0.185 -0.184,-0.374 -0.267,-0.567c-0.047,-0.109 -0.173,-0.159 -0.281,-0.113c-0.109,0.047 -0.159,0.173 -0.113,0.281c0.087,0.203 0.181,0.401 0.28,0.594c0.054,0.105 0.183,0.147 0.288,0.093c0.105,-0.054 0.146,-0.183 0.093,-0.288Z" style="fill:#3b469d;fill-rule:nonzero;"/><path d="M67.703,95.236c-0.371,-0.21 -0.732,-0.43 -1.084,-0.659c-0.099,-0.065 -0.231,-0.037 -0.296,0.062c-0.065,0.098 -0.037,0.231 0.062,0.296c0.36,0.234 0.729,0.459 1.108,0.673c0.102,0.058 0.233,0.022 0.291,-0.081c0.058,-0.103 0.022,-0.233 -0.081,-0.291Zm-2.124,-1.387c-0.34,-0.255 -0.671,-0.52 -0.991,-0.793c-0.089,-0.077 -0.224,-0.066 -0.301,0.024c-0.077,0.089 -0.066,0.224 0.023,0.301c0.327,0.28 0.665,0.55 1.013,0.811c0.094,0.07 0.228,0.051 0.299,-0.044c0.071,-0.094 0.052,-0.228 -0.043,-0.299Zm-1.927,-1.649c-0.305,-0.296 -0.598,-0.602 -0.879,-0.915c-0.08,-0.088 -0.215,-0.095 -0.303,-0.016c-0.088,0.079 -0.095,0.214 -0.016,0.302c0.289,0.32 0.588,0.632 0.899,0.936c0.084,0.081 0.22,0.08 0.302,-0.004c0.083,-0.085 0.081,-0.22 -0.003,-0.303Zm-1.697,-1.886c-0.263,-0.333 -0.514,-0.674 -0.753,-1.021c-0.067,-0.098 -0.2,-0.122 -0.297,-0.056c-0.098,0.067 -0.122,0.201 -0.055,0.298c0.244,0.355 0.5,0.703 0.769,1.044c0.073,0.093 0.207,0.109 0.3,0.036c0.093,-0.073 0.109,-0.208 0.036,-0.301Zm-1.438,-2.09c-0.216,-0.364 -0.421,-0.734 -0.614,-1.111c-0.054,-0.105 -0.182,-0.147 -0.288,-0.093c-0.104,0.054 -0.146,0.183 -0.092,0.288c0.196,0.384 0.405,0.763 0.627,1.135c0.06,0.101 0.192,0.135 0.293,0.074c0.101,-0.06 0.135,-0.192 0.074,-0.293Zm-1.155,-2.259c-0.168,-0.388 -0.323,-0.782 -0.466,-1.18c-0.039,-0.111 -0.162,-0.17 -0.273,-0.13c-0.111,0.04 -0.169,0.163 -0.129,0.274c0.145,0.407 0.304,0.809 0.476,1.206c0.046,0.108 0.172,0.158 0.281,0.111c0.108,-0.047 0.158,-0.172 0.111,-0.281Zm-0.855,-2.389c-0.116,-0.406 -0.22,-0.817 -0.31,-1.23c-0.025,-0.115 -0.139,-0.188 -0.255,-0.163c-0.115,0.025 -0.188,0.139 -0.163,0.254c0.092,0.423 0.198,0.842 0.317,1.258c0.033,0.113 0.151,0.179 0.265,0.146c0.113,-0.032 0.179,-0.151 0.146,-0.265Zm-0.541,-2.478c-0.063,-0.418 -0.113,-0.838 -0.15,-1.261c-0.01,-0.117 -0.114,-0.204 -0.231,-0.194c-0.118,0.01 -0.205,0.114 -0.195,0.231c0.037,0.431 0.088,0.861 0.153,1.288c0.018,0.117 0.127,0.197 0.244,0.179c0.116,-0.017 0.197,-0.126 0.179,-0.243Zm-0.218,-2.528c-0.003,-0.139 -0.004,-0.278 -0.004,-0.417c0,-0.284 0.006,-0.568 0.018,-0.852c0.005,-0.117 -0.086,-0.217 -0.204,-0.223c-0.118,-0.005 -0.218,0.087 -0.223,0.205c-0.012,0.29 -0.019,0.58 -0.019,0.87c0,0.142 0.001,0.284 0.004,0.426c0.003,0.119 0.101,0.212 0.219,0.21c0.118,-0.003 0.212,-0.1 0.209,-0.219Zm0.111,-2.534c0.046,-0.419 0.105,-0.838 0.178,-1.256c0.021,-0.117 -0.057,-0.227 -0.173,-0.248c-0.117,-0.02 -0.227,0.057 -0.248,0.174c-0.075,0.427 -0.136,0.855 -0.182,1.284c-0.013,0.117 0.072,0.223 0.189,0.236c0.118,0.012 0.223,-0.072 0.236,-0.19Zm0.438,-2.498c0.101,-0.409 0.214,-0.817 0.341,-1.223c0.035,-0.112 -0.027,-0.233 -0.14,-0.268c-0.112,-0.035 -0.233,0.028 -0.268,0.14c-0.13,0.415 -0.246,0.831 -0.348,1.25c-0.028,0.114 0.042,0.23 0.157,0.258c0.115,0.028 0.231,-0.042 0.258,-0.157Zm0.761,-2.421c0.151,-0.392 0.317,-0.781 0.496,-1.167c0.049,-0.108 0.003,-0.235 -0.105,-0.284c-0.107,-0.05 -0.234,-0.003 -0.283,0.103c-0.183,0.395 -0.352,0.793 -0.508,1.194c-0.042,0.11 0.013,0.234 0.123,0.277c0.11,0.042 0.234,-0.012 0.277,-0.123Zm1.066,-2.301c0.053,-0.098 0.106,-0.195 0.161,-0.291c0.155,-0.274 0.315,-0.542 0.48,-0.805c0.063,-0.1 0.033,-0.232 -0.067,-0.295c-0.1,-0.063 -0.232,-0.033 -0.295,0.068c-0.169,0.268 -0.333,0.542 -0.49,0.821c-0.056,0.099 -0.111,0.198 -0.165,0.297c-0.057,0.104 -0.018,0.234 0.086,0.29c0.103,0.057 0.233,0.018 0.29,-0.085Zm1.351,-2.148c0.249,-0.345 0.508,-0.679 0.776,-1.004c0.075,-0.091 0.063,-0.226 -0.029,-0.301c-0.091,-0.075 -0.225,-0.062 -0.301,0.029c-0.273,0.331 -0.538,0.673 -0.793,1.026c-0.069,0.095 -0.047,0.229 0.048,0.298c0.096,0.069 0.23,0.048 0.299,-0.048Zm1.616,-1.955c0.292,-0.309 0.592,-0.607 0.9,-0.895c0.087,-0.08 0.091,-0.215 0.011,-0.302c-0.08,-0.087 -0.216,-0.091 -0.302,-0.011c-0.316,0.293 -0.622,0.598 -0.92,0.915c-0.081,0.086 -0.077,0.221 0.009,0.302c0.086,0.081 0.221,0.077 0.302,-0.009Zm1.857,-1.729c0.328,-0.268 0.665,-0.525 1.008,-0.77c0.097,-0.068 0.119,-0.202 0.05,-0.298c-0.068,-0.096 -0.202,-0.119 -0.298,-0.05c-0.351,0.25 -0.695,0.513 -1.031,0.787c-0.092,0.074 -0.105,0.209 -0.03,0.301c0.074,0.091 0.209,0.105 0.301,0.03Zm2.065,-1.473c0.36,-0.223 0.727,-0.434 1.1,-0.632c0.104,-0.056 0.144,-0.186 0.088,-0.29c-0.055,-0.104 -0.185,-0.143 -0.289,-0.088c-0.381,0.203 -0.756,0.419 -1.124,0.647c-0.101,0.062 -0.131,0.194 -0.069,0.294c0.062,0.1 0.193,0.132 0.294,0.069Zm2.239,-1.193c0.386,-0.174 0.777,-0.336 1.172,-0.486c0.111,-0.041 0.167,-0.165 0.125,-0.275c-0.042,-0.111 -0.165,-0.167 -0.276,-0.125c-0.404,0.153 -0.804,0.318 -1.197,0.497c-0.108,0.048 -0.156,0.175 -0.107,0.283c0.048,0.107 0.175,0.155 0.283,0.106Zm2.374,-0.895c0.404,-0.123 0.813,-0.234 1.225,-0.331c0.115,-0.027 0.186,-0.142 0.159,-0.257c-0.027,-0.115 -0.142,-0.186 -0.258,-0.159c-0.42,0.099 -0.837,0.212 -1.251,0.338c-0.113,0.035 -0.177,0.154 -0.142,0.267c0.034,0.113 0.154,0.177 0.267,0.142Zm2.469,-0.583c0.417,-0.07 0.836,-0.127 1.257,-0.171c0.118,-0.012 0.204,-0.117 0.191,-0.235c-0.012,-0.117 -0.117,-0.202 -0.234,-0.19c-0.431,0.044 -0.86,0.103 -1.285,0.175c-0.117,0.019 -0.195,0.13 -0.176,0.246c0.02,0.117 0.13,0.195 0.247,0.175Zm2.524,-0.26c0.249,-0.01 0.499,-0.015 0.749,-0.015c0.173,0 0.346,0.003 0.52,0.007c0.118,0.004 0.216,-0.09 0.219,-0.208c0.003,-0.118 -0.09,-0.216 -0.208,-0.219c-0.177,-0.005 -0.354,-0.007 -0.531,-0.007c-0.256,0 -0.511,0.005 -0.766,0.015c-0.118,0.004 -0.21,0.103 -0.205,0.221c0.004,0.118 0.103,0.21 0.222,0.206Zm2.535,0.067c0.42,0.039 0.84,0.091 1.26,0.157c0.116,0.019 0.226,-0.061 0.244,-0.178c0.019,-0.116 -0.061,-0.226 -0.178,-0.244c-0.428,-0.068 -0.857,-0.121 -1.286,-0.161c-0.118,-0.01 -0.222,0.076 -0.233,0.194c-0.011,0.117 0.076,0.221 0.193,0.232Zm2.506,0.397c0.411,0.092 0.82,0.198 1.228,0.319c0.113,0.033 0.232,-0.031 0.266,-0.145c0.033,-0.113 -0.031,-0.232 -0.145,-0.265c-0.416,-0.123 -0.835,-0.232 -1.255,-0.327c-0.115,-0.026 -0.23,0.046 -0.256,0.162c-0.026,0.115 0.047,0.229 0.162,0.256Zm2.433,0.718c0.394,0.145 0.787,0.304 1.176,0.476c0.108,0.048 0.234,-0.001 0.282,-0.108c0.048,-0.109 -0.001,-0.235 -0.109,-0.283c-0.397,-0.176 -0.798,-0.338 -1.202,-0.486c-0.111,-0.041 -0.234,0.016 -0.274,0.127c-0.041,0.11 0.016,0.233 0.127,0.274Zm2.319,1.028c0.196,0.101 0.39,0.208 0.584,0.317c0.176,0.099 0.35,0.201 0.522,0.305c0.101,0.062 0.233,0.03 0.294,-0.071c0.061,-0.102 0.029,-0.233 -0.072,-0.294c-0.176,-0.107 -0.354,-0.211 -0.534,-0.313c-0.197,-0.111 -0.396,-0.219 -0.596,-0.324c-0.104,-0.055 -0.234,-0.014 -0.288,0.091c-0.055,0.105 -0.014,0.234 0.09,0.289Zm2.17,1.315c0.349,0.243 0.688,0.496 1.017,0.759c0.092,0.073 0.227,0.058 0.3,-0.034c0.074,-0.092 0.059,-0.227 -0.033,-0.301c-0.336,-0.268 -0.683,-0.527 -1.039,-0.775c-0.098,-0.068 -0.231,-0.044 -0.298,0.053c-0.068,0.097 -0.044,0.23 0.053,0.298Zm1.982,1.582c0.315,0.286 0.618,0.581 0.91,0.885c0.082,0.085 0.218,0.087 0.303,0.005c0.084,-0.082 0.087,-0.217 0.005,-0.302c-0.299,-0.31 -0.609,-0.612 -0.93,-0.904c-0.087,-0.08 -0.222,-0.073 -0.302,0.014c-0.08,0.087 -0.073,0.223 0.014,0.302Zm1.76,1.827c0.275,0.324 0.537,0.656 0.787,0.995c0.071,0.095 0.205,0.115 0.3,0.045c0.095,-0.07 0.115,-0.204 0.045,-0.299c-0.256,-0.347 -0.525,-0.686 -0.805,-1.018c-0.076,-0.089 -0.211,-0.101 -0.301,-0.025c-0.09,0.077 -0.102,0.211 -0.026,0.302Zm1.508,2.04c0.229,0.356 0.447,0.72 0.652,1.089c0.057,0.103 0.187,0.14 0.29,0.083c0.104,-0.057 0.141,-0.187 0.083,-0.291c-0.209,-0.377 -0.431,-0.748 -0.665,-1.113c-0.064,-0.099 -0.196,-0.128 -0.296,-0.064c-0.099,0.064 -0.128,0.196 -0.064,0.296Zm1.231,2.218c0.181,0.383 0.35,0.771 0.505,1.164c0.044,0.11 0.169,0.164 0.278,0.12c0.11,-0.044 0.164,-0.168 0.12,-0.277c-0.159,-0.402 -0.331,-0.799 -0.516,-1.19c-0.051,-0.107 -0.178,-0.152 -0.285,-0.102c-0.107,0.051 -0.152,0.178 -0.102,0.285Zm0.935,2.358c0.13,0.403 0.248,0.81 0.352,1.22c0.029,0.114 0.145,0.184 0.26,0.155c0.114,-0.03 0.183,-0.146 0.154,-0.26c-0.106,-0.419 -0.226,-0.835 -0.359,-1.246c-0.036,-0.113 -0.157,-0.174 -0.269,-0.138c-0.112,0.037 -0.174,0.157 -0.138,0.269Zm0.624,2.459c0.078,0.416 0.142,0.834 0.193,1.255c0.014,0.117 0.12,0.201 0.238,0.187c0.117,-0.014 0.2,-0.121 0.186,-0.238c-0.051,-0.43 -0.117,-0.857 -0.196,-1.282c-0.022,-0.116 -0.133,-0.193 -0.25,-0.171c-0.115,0.022 -0.192,0.133 -0.171,0.249Zm0.304,2.519c0.019,0.36 0.03,0.72 0.03,1.082c0,0.062 -0.001,0.125 -0.001,0.187c-0.002,0.118 0.093,0.215 0.211,0.216c0.119,0.001 0.215,-0.094 0.216,-0.212c0.001,-0.064 0.001,-0.128 0.001,-0.191c0,-0.369 -0.01,-0.738 -0.03,-1.106c-0.007,-0.117 -0.108,-0.207 -0.225,-0.201c-0.119,0.006 -0.209,0.107 -0.202,0.225Zm-0.025,2.537c-0.031,0.421 -0.076,0.842 -0.135,1.262c-0.017,0.117 0.065,0.225 0.181,0.242c0.118,0.016 0.226,-0.065 0.242,-0.183c0.06,-0.429 0.107,-0.859 0.139,-1.289c0.009,-0.118 -0.08,-0.221 -0.197,-0.229c-0.119,-0.009 -0.221,0.079 -0.23,0.197Zm-0.353,2.512c-0.011,0.051 -0.021,0.102 -0.032,0.152c-0.078,0.362 -0.167,0.722 -0.267,1.081c-0.031,0.114 0.035,0.232 0.149,0.263c0.114,0.032 0.232,-0.035 0.264,-0.148c0.101,-0.367 0.192,-0.736 0.272,-1.105c0.011,-0.052 0.022,-0.104 0.033,-0.156c0.024,-0.115 -0.05,-0.229 -0.166,-0.253c-0.116,-0.024 -0.229,0.05 -0.253,0.166Zm-0.677,2.445c-0.139,0.397 -0.291,0.792 -0.456,1.184c-0.046,0.108 0.005,0.234 0.113,0.28c0.109,0.046 0.235,-0.005 0.281,-0.113c0.169,-0.401 0.324,-0.805 0.466,-1.211c0.039,-0.111 -0.02,-0.233 -0.132,-0.272c-0.111,-0.039 -0.233,0.02 -0.272,0.132Zm-0.988,2.336c-0.148,0.295 -0.304,0.589 -0.469,0.88c-0.058,0.102 -0.021,0.233 0.081,0.291c0.103,0.058 0.233,0.022 0.291,-0.081c0.169,-0.297 0.328,-0.597 0.479,-0.898c0.053,-0.106 0.01,-0.235 -0.095,-0.287c-0.106,-0.053 -0.234,-0.01 -0.287,0.095Z" style="fill:#3b469d;fill-rule:nonzero;"/><path d="M166.122,98.786c0.098,0.186 0.19,0.374 0.274,0.563c0.048,0.109 0.174,0.157 0.282,0.109c0.108,-0.047 0.157,-0.174 0.109,-0.282c-0.088,-0.199 -0.184,-0.396 -0.288,-0.591c-0.056,-0.104 -0.185,-0.144 -0.289,-0.088c-0.105,0.056 -0.144,0.185 -0.088,0.289Z" style="fill:#3b469d;fill-rule:nonzero;"/><path d="M166.805,100.497c0.108,0.396 0.186,0.796 0.234,1.196c0.015,0.117 0.121,0.201 0.238,0.187c0.118,-0.014 0.201,-0.121 0.187,-0.238c-0.051,-0.421 -0.133,-0.842 -0.247,-1.258c-0.031,-0.114 -0.149,-0.181 -0.263,-0.149c-0.114,0.031 -0.181,0.149 -0.149,0.262Zm0.291,2.413c-0.012,0.409 -0.053,0.814 -0.124,1.213c-0.02,0.116 0.058,0.227 0.174,0.248c0.116,0.02 0.227,-0.057 0.248,-0.173c0.074,-0.42 0.117,-0.847 0.129,-1.276c0.003,-0.118 -0.09,-0.216 -0.208,-0.219c-0.118,-0.003 -0.216,0.089 -0.219,0.207Zm-0.423,2.395c-0.128,0.385 -0.284,0.761 -0.468,1.125c-0.053,0.105 -0.01,0.234 0.095,0.287c0.106,0.053 0.234,0.011 0.287,-0.095c0.193,-0.382 0.358,-0.777 0.492,-1.183c0.037,-0.112 -0.023,-0.233 -0.135,-0.27c-0.112,-0.037 -0.233,0.024 -0.271,0.136Zm-1.095,2.17c-0.232,0.329 -0.491,0.644 -0.774,0.94c-0.081,0.085 -0.078,0.221 0.008,0.303c0.085,0.081 0.22,0.078 0.302,-0.008c0.297,-0.311 0.569,-0.642 0.814,-0.989c0.068,-0.097 0.045,-0.23 -0.052,-0.298c-0.096,-0.068 -0.23,-0.045 -0.298,0.052Zm-1.678,1.756c-0.316,0.246 -0.655,0.472 -1.014,0.675c-0.103,0.059 -0.139,0.189 -0.081,0.292c0.058,0.103 0.188,0.139 0.291,0.081c0.378,-0.214 0.734,-0.451 1.067,-0.71c0.093,-0.072 0.11,-0.207 0.037,-0.3c-0.072,-0.093 -0.206,-0.11 -0.3,-0.038Zm-2.116,1.196c-0.384,0.148 -0.774,0.266 -1.166,0.355c-0.115,0.025 -0.188,0.14 -0.162,0.255c0.026,0.115 0.14,0.188 0.255,0.162c0.414,-0.093 0.823,-0.217 1.227,-0.373c0.11,-0.042 0.165,-0.166 0.122,-0.276c-0.042,-0.111 -0.166,-0.165 -0.276,-0.123Zm-2.372,0.532c-0.2,0.015 -0.399,0.022 -0.599,0.022c-0.207,0 -0.413,-0.007 -0.619,-0.023c-0.118,-0.009 -0.221,0.079 -0.229,0.197c-0.009,0.118 0.079,0.221 0.197,0.23c0.216,0.016 0.434,0.024 0.651,0.024c0.21,0 0.42,-0.008 0.63,-0.023c0.118,-0.009 0.207,-0.111 0.198,-0.229c-0.008,-0.118 -0.111,-0.206 -0.229,-0.198Zm-2.423,-0.181c-0.397,-0.089 -0.787,-0.207 -1.167,-0.354c-0.11,-0.042 -0.234,0.013 -0.276,0.123c-0.043,0.11 0.012,0.234 0.123,0.276c0.399,0.154 0.808,0.278 1.225,0.372c0.116,0.026 0.23,-0.046 0.256,-0.162c0.026,-0.115 -0.046,-0.229 -0.161,-0.255Zm-2.269,-0.874c-0.352,-0.199 -0.691,-0.425 -1.014,-0.675c-0.093,-0.073 -0.227,-0.056 -0.3,0.037c-0.072,0.093 -0.055,0.228 0.038,0.3c0.339,0.264 0.695,0.501 1.066,0.711c0.102,0.058 0.233,0.022 0.291,-0.081c0.058,-0.103 0.022,-0.234 -0.081,-0.292Zm-1.917,-1.493c-0.277,-0.291 -0.536,-0.605 -0.772,-0.942c-0.068,-0.096 -0.202,-0.119 -0.298,-0.051c-0.097,0.068 -0.12,0.201 -0.052,0.297c0.249,0.354 0.521,0.685 0.813,0.991c0.081,0.086 0.217,0.089 0.302,0.008c0.086,-0.082 0.089,-0.217 0.007,-0.303Zm-1.399,-1.987c-0.186,-0.369 -0.342,-0.745 -0.469,-1.125c-0.038,-0.112 -0.159,-0.173 -0.271,-0.136c-0.112,0.038 -0.173,0.159 -0.135,0.271c0.133,0.4 0.297,0.796 0.493,1.183c0.053,0.105 0.182,0.148 0.287,0.094c0.106,-0.053 0.148,-0.182 0.095,-0.287Zm-0.768,-2.306c-0.071,-0.404 -0.11,-0.809 -0.121,-1.213c-0.003,-0.118 -0.101,-0.211 -0.219,-0.208c-0.118,0.003 -0.211,0.101 -0.208,0.219c0.01,0.425 0.053,0.851 0.127,1.275c0.02,0.116 0.131,0.194 0.247,0.174c0.117,-0.02 0.195,-0.131 0.174,-0.247l0,0Zm-0.062,-2.43c0.05,-0.405 0.129,-0.804 0.237,-1.196c0.031,-0.114 -0.036,-0.231 -0.15,-0.263c-0.114,-0.031 -0.232,0.036 -0.263,0.15c-0.113,0.412 -0.196,0.832 -0.248,1.257c-0.015,0.117 0.069,0.224 0.186,0.238c0.117,0.015 0.224,-0.069 0.238,-0.186Zm0.645,-2.345c0.163,-0.371 0.353,-0.731 0.571,-1.076c0.063,-0.1 0.033,-0.232 -0.067,-0.295c-0.101,-0.063 -0.233,-0.032 -0.296,0.067c-0.228,0.363 -0.428,0.742 -0.6,1.132c-0.048,0.108 0.002,0.235 0.11,0.282c0.108,0.048 0.234,-0.001 0.282,-0.11Zm1.294,-2.057c0.124,-0.146 0.255,-0.287 0.391,-0.425c0.149,-0.151 0.305,-0.298 0.468,-0.438c0.089,-0.077 0.099,-0.212 0.022,-0.302c-0.077,-0.089 -0.212,-0.099 -0.302,-0.022c-0.171,0.148 -0.335,0.302 -0.493,0.462c-0.142,0.144 -0.28,0.293 -0.411,0.447c-0.077,0.089 -0.067,0.224 0.023,0.301c0.089,0.077 0.225,0.067 0.302,-0.023Z" style="fill:#3b469d;fill-rule:nonzero;"/><path d="M154.363,95.687c0.175,-0.111 0.355,-0.216 0.541,-0.315c0.104,-0.055 0.143,-0.185 0.088,-0.289c-0.056,-0.104 -0.185,-0.144 -0.29,-0.088c-0.194,0.104 -0.384,0.214 -0.568,0.331c-0.099,0.063 -0.129,0.195 -0.066,0.295c0.063,0.1 0.195,0.129 0.295,0.066l0,0Z" style="fill:#3b469d;fill-rule:nonzero;"/><path d="M49.377,114.069c0.196,0.081 0.39,0.165 0.582,0.252c0.107,0.049 0.234,0.001 0.283,-0.106c0.049,-0.108 0.001,-0.235 -0.106,-0.284c-0.197,-0.089 -0.395,-0.175 -0.596,-0.257c-0.109,-0.045 -0.234,0.006 -0.279,0.116c-0.046,0.109 0.007,0.234 0.116,0.279Z" style="fill:#3b469d;fill-rule:nonzero;"/><path d="M51.094,114.882c0.373,0.202 0.738,0.415 1.092,0.639c0.1,0.063 0.232,0.033 0.295,-0.067c0.063,-0.1 0.033,-0.232 -0.067,-0.295c-0.363,-0.229 -0.735,-0.447 -1.118,-0.653c-0.104,-0.056 -0.233,-0.017 -0.289,0.087c-0.056,0.104 -0.017,0.233 0.087,0.289Zm2.137,1.351c0.341,0.251 0.673,0.512 0.993,0.784c0.09,0.076 0.225,0.065 0.302,-0.025c0.076,-0.09 0.065,-0.225 -0.025,-0.302c-0.328,-0.278 -0.667,-0.545 -1.017,-0.802c-0.095,-0.07 -0.229,-0.049 -0.299,0.046c-0.07,0.095 -0.049,0.229 0.046,0.299Zm1.929,1.635c0.303,0.295 0.595,0.6 0.875,0.914c0.078,0.088 0.214,0.096 0.302,0.017c0.088,-0.079 0.095,-0.214 0.017,-0.302c-0.286,-0.321 -0.585,-0.634 -0.895,-0.936c-0.085,-0.082 -0.22,-0.08 -0.303,0.004c-0.082,0.085 -0.08,0.22 0.004,0.303Zm1.684,1.887c0.258,0.334 0.505,0.676 0.739,1.026c0.066,0.098 0.199,0.125 0.297,0.059c0.098,-0.066 0.124,-0.198 0.059,-0.297c-0.24,-0.358 -0.492,-0.709 -0.757,-1.05c-0.072,-0.094 -0.207,-0.111 -0.3,-0.038c-0.094,0.072 -0.111,0.206 -0.038,0.3Zm1.406,2.101c0.21,0.367 0.407,0.74 0.591,1.119c0.052,0.106 0.18,0.151 0.286,0.099c0.106,-0.051 0.15,-0.179 0.099,-0.286c-0.188,-0.388 -0.39,-0.77 -0.605,-1.145c-0.059,-0.102 -0.189,-0.137 -0.292,-0.079c-0.102,0.059 -0.138,0.19 -0.079,0.292Zm1.104,2.276c0.157,0.391 0.302,0.788 0.432,1.189c0.036,0.112 0.157,0.174 0.269,0.137c0.113,-0.036 0.174,-0.157 0.138,-0.269c-0.134,-0.411 -0.281,-0.817 -0.442,-1.217c-0.045,-0.11 -0.169,-0.163 -0.279,-0.118c-0.109,0.044 -0.162,0.168 -0.118,0.278Zm0.781,2.405c0.102,0.409 0.19,0.821 0.264,1.237c0.021,0.116 0.132,0.194 0.248,0.173c0.116,-0.02 0.194,-0.131 0.173,-0.247c-0.075,-0.426 -0.166,-0.849 -0.27,-1.267c-0.029,-0.114 -0.145,-0.184 -0.259,-0.155c-0.115,0.028 -0.185,0.144 -0.156,0.259Zm0.442,2.489c0.045,0.419 0.076,0.84 0.091,1.262c0.005,0.118 0.104,0.21 0.222,0.206c0.118,-0.004 0.21,-0.103 0.206,-0.221c-0.016,-0.433 -0.048,-0.864 -0.093,-1.292c-0.013,-0.118 -0.118,-0.202 -0.236,-0.19c-0.117,0.013 -0.202,0.118 -0.19,0.235Zm0.094,2.527c-0.014,0.42 -0.042,0.842 -0.086,1.263c-0.011,0.117 0.074,0.222 0.191,0.234c0.118,0.012 0.223,-0.073 0.235,-0.19c0.045,-0.432 0.073,-0.863 0.087,-1.293c0.004,-0.118 -0.088,-0.217 -0.206,-0.22c-0.118,-0.004 -0.217,0.088 -0.221,0.206Zm-0.259,2.516c-0.072,0.413 -0.158,0.826 -0.26,1.238c-0.028,0.114 0.042,0.23 0.157,0.259c0.114,0.028 0.23,-0.042 0.259,-0.157c0.103,-0.421 0.192,-0.844 0.266,-1.267c0.02,-0.116 -0.058,-0.227 -0.175,-0.247c-0.116,-0.021 -0.227,0.057 -0.247,0.174Zm-0.605,2.455c-0.128,0.398 -0.271,0.796 -0.428,1.19c-0.044,0.11 0.01,0.235 0.119,0.278c0.11,0.044 0.235,-0.01 0.278,-0.119c0.161,-0.404 0.307,-0.81 0.438,-1.218c0.036,-0.113 -0.025,-0.233 -0.138,-0.269c-0.112,-0.036 -0.233,0.025 -0.269,0.138Zm-0.936,2.349c-0.184,0.383 -0.38,0.757 -0.587,1.121c-0.058,0.103 -0.022,0.233 0.081,0.291c0.102,0.059 0.233,0.023 0.291,-0.08c0.212,-0.373 0.412,-0.755 0.6,-1.147c0.051,-0.106 0.006,-0.234 -0.1,-0.285c-0.107,-0.052 -0.234,-0.007 -0.285,0.1Zm-1.249,2.199c-0.234,0.353 -0.48,0.696 -0.736,1.029c-0.072,0.093 -0.054,0.227 0.04,0.3c0.093,0.071 0.227,0.054 0.299,-0.04c0.262,-0.34 0.513,-0.691 0.753,-1.053c0.066,-0.098 0.039,-0.231 -0.06,-0.296c-0.098,-0.066 -0.231,-0.039 -0.296,0.06Zm-1.542,2.004c-0.28,0.317 -0.571,0.622 -0.871,0.917c-0.085,0.083 -0.086,0.218 -0.003,0.302c0.082,0.085 0.218,0.086 0.302,0.003c0.307,-0.301 0.605,-0.614 0.892,-0.938c0.079,-0.089 0.071,-0.224 -0.018,-0.302c-0.088,-0.079 -0.223,-0.071 -0.302,0.018Zm-1.805,1.771c-0.322,0.274 -0.652,0.536 -0.991,0.787c-0.095,0.07 -0.115,0.204 -0.045,0.299c0.07,0.095 0.205,0.115 0.3,0.044c0.346,-0.255 0.684,-0.524 1.013,-0.805c0.09,-0.077 0.101,-0.211 0.024,-0.301c-0.076,-0.09 -0.211,-0.101 -0.301,-0.024Zm-2.034,1.503c-0.356,0.227 -0.719,0.441 -1.09,0.643c-0.103,0.056 -0.142,0.186 -0.085,0.29c0.056,0.104 0.186,0.142 0.29,0.086c0.379,-0.207 0.751,-0.426 1.115,-0.658c0.1,-0.064 0.129,-0.196 0.066,-0.296c-0.064,-0.099 -0.196,-0.128 -0.296,-0.065Zm-2.221,1.209c-0.383,0.176 -0.773,0.338 -1.168,0.487c-0.11,0.042 -0.166,0.165 -0.124,0.276c0.041,0.11 0.165,0.166 0.275,0.124c0.404,-0.152 0.803,-0.318 1.195,-0.498c0.108,-0.049 0.155,-0.176 0.106,-0.283c-0.05,-0.108 -0.177,-0.155 -0.284,-0.106Zm-2.366,0.893c-0.404,0.121 -0.812,0.228 -1.224,0.322c-0.115,0.026 -0.187,0.14 -0.161,0.255c0.026,0.116 0.141,0.188 0.256,0.162c0.421,-0.096 0.839,-0.206 1.252,-0.33c0.113,-0.034 0.177,-0.153 0.143,-0.266c-0.034,-0.113 -0.153,-0.177 -0.266,-0.143Zm-2.466,0.558c-0.417,0.065 -0.835,0.115 -1.257,0.15c-0.117,0.01 -0.205,0.114 -0.195,0.231c0.011,0.118 0.114,0.206 0.231,0.195c0.431,-0.036 0.861,-0.087 1.286,-0.153c0.117,-0.018 0.197,-0.127 0.179,-0.244c-0.018,-0.117 -0.128,-0.197 -0.244,-0.179Zm-2.52,0.213c-0.088,0.001 -0.176,0.002 -0.265,0.002c-0.332,0 -0.666,-0.009 -0.999,-0.028c-0.118,-0.006 -0.219,0.084 -0.226,0.202c-0.006,0.118 0.084,0.219 0.202,0.225c0.342,0.019 0.683,0.028 1.023,0.028c0.091,0 0.181,0 0.272,-0.001c0.118,-0.002 0.212,-0.099 0.211,-0.217c-0.002,-0.119 -0.1,-0.213 -0.218,-0.211Zm-2.524,-0.14c-0.417,-0.052 -0.833,-0.119 -1.249,-0.201c-0.116,-0.023 -0.228,0.053 -0.252,0.168c-0.022,0.116 0.053,0.229 0.169,0.252c0.426,0.084 0.852,0.152 1.279,0.206c0.117,0.015 0.224,-0.068 0.238,-0.186c0.015,-0.117 -0.068,-0.224 -0.185,-0.239Zm-2.481,-0.489c-0.405,-0.109 -0.808,-0.233 -1.209,-0.372c-0.112,-0.039 -0.234,0.021 -0.272,0.132c-0.039,0.112 0.02,0.234 0.132,0.272c0.411,0.143 0.823,0.269 1.237,0.381c0.114,0.031 0.232,-0.037 0.263,-0.15c0.03,-0.115 -0.037,-0.232 -0.151,-0.263Zm-2.39,-0.826c-0.392,-0.166 -0.774,-0.344 -1.147,-0.534c-0.106,-0.053 -0.234,-0.011 -0.288,0.094c-0.053,0.106 -0.011,0.234 0.094,0.288c0.382,0.194 0.774,0.376 1.174,0.546c0.108,0.046 0.234,-0.005 0.28,-0.114c0.046,-0.108 -0.005,-0.234 -0.113,-0.28Zm-2.255,-1.145c-0.364,-0.217 -0.719,-0.447 -1.062,-0.686c-0.098,-0.068 -0.231,-0.044 -0.299,0.053c-0.067,0.097 -0.043,0.23 0.054,0.298c0.352,0.245 0.715,0.48 1.088,0.702c0.101,0.061 0.232,0.028 0.293,-0.074c0.06,-0.101 0.027,-0.232 -0.074,-0.293Zm-2.075,-1.445c-0.33,-0.266 -0.649,-0.542 -0.957,-0.828c-0.087,-0.08 -0.222,-0.075 -0.303,0.012c-0.08,0.086 -0.075,0.222 0.012,0.302c0.315,0.292 0.642,0.575 0.979,0.847c0.092,0.074 0.227,0.06 0.301,-0.032c0.074,-0.092 0.06,-0.227 -0.032,-0.301Zm-1.854,-1.72c-0.289,-0.308 -0.567,-0.626 -0.833,-0.953c-0.075,-0.091 -0.209,-0.105 -0.301,-0.03c-0.092,0.074 -0.105,0.209 -0.031,0.301c0.272,0.334 0.556,0.659 0.853,0.975c0.08,0.086 0.216,0.09 0.302,0.009c0.086,-0.08 0.09,-0.216 0.01,-0.302Zm-1.598,-1.96c-0.243,-0.346 -0.474,-0.699 -0.693,-1.059c-0.061,-0.101 -0.193,-0.133 -0.294,-0.072c-0.101,0.061 -0.133,0.193 -0.072,0.294c0.224,0.369 0.461,0.73 0.71,1.083c0.068,0.097 0.201,0.12 0.298,0.052c0.096,-0.069 0.119,-0.202 0.051,-0.298Zm-1.311,-2.163c-0.194,-0.375 -0.374,-0.756 -0.541,-1.144c-0.047,-0.108 -0.173,-0.158 -0.281,-0.111c-0.109,0.046 -0.159,0.172 -0.112,0.281c0.171,0.396 0.356,0.787 0.554,1.17c0.054,0.105 0.183,0.147 0.288,0.092c0.105,-0.054 0.146,-0.183 0.092,-0.288Zm-1.002,-2.322c-0.14,-0.398 -0.266,-0.8 -0.379,-1.207c-0.031,-0.114 -0.149,-0.181 -0.263,-0.149c-0.114,0.031 -0.181,0.149 -0.149,0.263c0.115,0.416 0.244,0.828 0.387,1.235c0.04,0.112 0.162,0.17 0.273,0.131c0.112,-0.039 0.17,-0.161 0.131,-0.273Zm-0.673,-2.437c-0.084,-0.413 -0.154,-0.829 -0.209,-1.248c-0.016,-0.117 -0.123,-0.199 -0.24,-0.184c-0.117,0.015 -0.2,0.123 -0.185,0.24c0.057,0.429 0.128,0.855 0.214,1.277c0.024,0.115 0.137,0.19 0.253,0.167c0.115,-0.024 0.19,-0.137 0.167,-0.252Zm-0.331,-2.507c-0.023,-0.372 -0.035,-0.747 -0.035,-1.122c0,-0.047 0,-0.095 0.001,-0.143c0.001,-0.118 -0.094,-0.214 -0.213,-0.215c-0.118,-0.001 -0.214,0.094 -0.215,0.212c-0.001,0.049 -0.001,0.097 -0.001,0.146c0,0.384 0.012,0.767 0.036,1.148c0.007,0.118 0.109,0.208 0.226,0.201c0.118,-0.008 0.208,-0.109 0.201,-0.227Zm0.02,-2.529c0.006,-0.073 0.012,-0.145 0.018,-0.218c0.031,-0.346 0.072,-0.692 0.124,-1.039c0.017,-0.117 -0.063,-0.225 -0.181,-0.243c-0.116,-0.017 -0.225,0.063 -0.242,0.181c-0.053,0.354 -0.095,0.708 -0.127,1.063c-0.007,0.074 -0.013,0.148 -0.019,0.223c-0.009,0.118 0.079,0.221 0.197,0.23c0.117,0.009 0.221,-0.079 0.23,-0.197Zm0.371,-2.501c0.091,-0.409 0.195,-0.818 0.316,-1.225c0.033,-0.113 -0.032,-0.232 -0.145,-0.266c-0.113,-0.033 -0.232,0.032 -0.266,0.145c-0.122,0.417 -0.23,0.835 -0.323,1.254c-0.025,0.115 0.048,0.229 0.163,0.255c0.115,0.025 0.23,-0.047 0.255,-0.163Z" style="fill:#3b469d;fill-rule:nonzero;"/><path d="M25.293,124.577c0.073,-0.197 0.151,-0.393 0.232,-0.59c0.045,-0.109 -0.007,-0.234 -0.117,-0.279c-0.109,-0.045 -0.234,0.007 -0.279,0.116c-0.083,0.201 -0.162,0.402 -0.237,0.604c-0.041,0.111 0.015,0.234 0.126,0.275c0.111,0.042 0.234,-0.015 0.275,-0.126Z" style="fill:#3b469d;fill-rule:nonzero;"/><path d="M48.593,131.324c-0.097,0.444 -0.249,0.864 -0.436,1.267c-0.534,1.151 -1.411,2.098 -2.501,2.734c-0.318,0.184 -0.649,0.343 -0.999,0.47c-0.658,0.239 -1.359,0.39 -2.099,0.39c-0.67,0 -1.303,-0.133 -1.907,-0.33c-0.327,-0.107 -0.639,-0.237 -0.939,-0.394c-1.206,-0.631 -2.179,-1.632 -2.753,-2.87c-0.159,-0.343 -0.281,-0.702 -0.376,-1.075c-0.123,-0.487 -0.209,-0.989 -0.209,-1.515c0,-0.74 0.152,-1.44 0.39,-2.098c0.161,-0.443 0.358,-0.867 0.611,-1.257c0.579,-0.893 1.389,-1.608 2.337,-2.104c0.478,-0.25 0.982,-0.457 1.524,-0.575c0.427,-0.094 0.867,-0.15 1.322,-0.15c0.526,0 1.027,0.086 1.515,0.209c0.564,0.143 1.092,0.366 1.583,0.652c0.839,0.49 1.558,1.155 2.086,1.968c0.288,0.444 0.502,0.936 0.67,1.449c0.196,0.604 0.33,1.237 0.33,1.906c0,0.455 -0.056,0.896 -0.149,1.323Zm9.595,1.267l0,-5.945l-3.735,0c-0.32,-1.137 -0.798,-2.204 -1.41,-3.182l2.705,-2.706l-4.203,-4.204l-2.768,2.768c-0.965,-0.563 -2.013,-0.995 -3.121,-1.282l0,-3.925l-5.944,0l0,3.861c-1.141,0.269 -2.221,0.691 -3.216,1.252l-2.673,-2.674l-4.204,4.204l2.549,2.549c-0.659,1.02 -1.168,2.143 -1.505,3.339l-3.484,0l0,5.945l3.287,0c0.277,1.299 0.764,2.516 1.413,3.629l-2.26,2.26l4.204,4.204l2.197,-2.198c1.123,0.702 2.365,1.228 3.692,1.541l0,3.096l5.944,0l0,-3.16c1.293,-0.335 2.504,-0.866 3.597,-1.572l2.292,2.293l4.203,-4.204l-2.416,-2.417c0.603,-1.069 1.054,-2.235 1.318,-3.472l3.538,0Z" style="fill:#a661a7;fill-rule:nonzero;"/><path d="M127.559,71.007l-0.384,-0.189c-0.185,0.374 -0.415,0.719 -0.678,1.046c-0.74,0.919 -1.743,1.576 -2.873,1.907c-0.33,0.097 -0.664,0.165 -1.008,0.201c-0.227,0.024 -0.455,0.037 -0.683,0.037c-0.433,0 -0.867,-0.047 -1.3,-0.154c-0.595,-0.148 -1.134,-0.408 -1.647,-0.729c-0.273,-0.17 -0.525,-0.357 -0.76,-0.566c-0.95,-0.842 -1.603,-1.964 -1.843,-3.209c-0.066,-0.342 -0.096,-0.694 -0.098,-1.056l0,-0.037c0,-0.467 0.038,-0.925 0.15,-1.378l0.005,-0.018l-0.005,0.018c0.164,-0.661 0.456,-1.258 0.825,-1.807c0.249,-0.371 0.522,-0.709 0.833,-0.998c0.72,-0.674 1.611,-1.139 2.583,-1.375c0.457,-0.112 0.915,-0.181 1.377,-0.181c0.043,0 0.085,0 0.128,0.001c0.411,0.012 0.821,0.061 1.229,0.162c0.465,0.116 0.897,0.304 1.32,0.53c0.477,0.255 0.903,0.574 1.284,0.944c0.651,0.635 1.15,1.397 1.443,2.246c0.157,0.456 0.242,0.947 0.278,1.458c0.012,0.175 0.02,0.349 0.02,0.524c0,0.426 -0.042,0.85 -0.147,1.273l0,0c-0.101,0.407 -0.251,0.792 -0.433,1.161l0.384,0.189l0.383,0.19c0.205,-0.415 0.378,-0.858 0.496,-1.334l0,0c0.124,-0.501 0.172,-0.997 0.172,-1.479c0,-0.198 -0.008,-0.392 -0.022,-0.585l-0.001,-0.025l0.001,0.025c-0.04,-0.565 -0.135,-1.13 -0.323,-1.676c-0.339,-0.984 -0.914,-1.859 -1.655,-2.58c-0.433,-0.422 -0.925,-0.79 -1.476,-1.085c-0.463,-0.248 -0.963,-0.468 -1.518,-0.606c-0.476,-0.118 -0.948,-0.173 -1.411,-0.187c-0.05,-0.001 -0.101,-0.002 -0.152,-0.002c-0.548,0 -1.074,0.083 -1.579,0.205c-1.106,0.269 -2.132,0.802 -2.966,1.582c-0.368,0.345 -0.682,0.734 -0.958,1.146c-0.412,0.614 -0.753,1.302 -0.945,2.078l0,0c-0.135,0.541 -0.175,1.072 -0.175,1.584l0,0.041c0.002,0.408 0.036,0.813 0.113,1.213c0.277,1.436 1.029,2.725 2.115,3.688c0.272,0.242 0.564,0.458 0.874,0.652c0.565,0.353 1.189,0.658 1.895,0.833c0.508,0.126 1.012,0.179 1.506,0.179c0.26,0 0.518,-0.015 0.772,-0.041c0.399,-0.042 0.784,-0.121 1.159,-0.231c1.292,-0.378 2.447,-1.133 3.3,-2.191c0.293,-0.366 0.561,-0.764 0.778,-1.204l-0.383,-0.19Zm9.007,3.544l0.414,0.103l1.537,-6.184l-4.039,-1.004l-0.103,0.415l0.427,-0.013c-0.038,-1.222 -0.252,-2.413 -0.622,-3.549l-0.406,0.133l0.22,0.367l3.645,-2.194l-3.507,-5.827l-3.721,2.24l0.221,0.367l0.298,-0.307c-0.829,-0.807 -1.773,-1.502 -2.813,-2.067l-0.204,0.377l0.415,0.103l1.05,-4.225l-6.599,-1.64l-1.035,4.162l0.415,0.104l0.005,-0.428c-0.051,-0.001 -0.103,-0.001 -0.154,-0.001c-1.158,0 -2.296,0.153 -3.387,0.455l0.114,0.413l0.366,-0.221l-2.17,-3.606l-5.826,3.507l2.079,3.456l0.367,-0.221l-0.293,-0.312c-0.916,0.86 -1.708,1.86 -2.345,2.978l0.372,0.212l0.103,-0.415l-3.796,-0.944l-1.64,6.6l3.605,0.895l0.103,-0.414l-0.427,-0.015c-0.005,0.139 -0.007,0.277 -0.007,0.415c0,1.231 0.183,2.433 0.52,3.582l0.41,-0.12l-0.221,-0.366l-3.105,1.868l3.507,5.827l3.029,-1.824l-0.22,-0.366l-0.308,0.297c0.952,0.986 2.069,1.824 3.323,2.469l0.195,-0.38l-0.415,-0.103l-0.849,3.419l6.599,1.64l0.866,-3.482l-0.416,-0.103l0.004,0.427c1.381,-0.012 2.73,-0.244 4.004,-0.68l-0.139,-0.405l-0.366,0.221l1.893,3.144l5.826,-3.507l-1.983,-3.295l-0.367,0.221l0.311,0.294c0.873,-0.923 1.616,-1.982 2.19,-3.158l-0.384,-0.188l-0.104,0.415l3.849,0.957l0.103,-0.416l-0.414,-0.103l0.103,-0.415l-3.77,-0.936l-0.152,0.311c-0.534,1.096 -1.228,2.083 -2.043,2.945l-0.222,0.236l1.709,2.84l-4.361,2.625l-1.629,-2.708l-0.327,0.113c-1.187,0.405 -2.445,0.622 -3.734,0.634l-0.332,0.003l-0.739,2.973l-4.939,-1.227l0.725,-2.918l-0.301,-0.155c-1.17,-0.602 -2.21,-1.383 -3.099,-2.303l-0.236,-0.244l-2.588,1.558l-2.624,-4.361l2.654,-1.598l-0.093,-0.317c-0.314,-1.074 -0.485,-2.196 -0.485,-3.341c0,-0.128 0.002,-0.257 0.007,-0.386l0.011,-0.346l-3.11,-0.773l1.227,-4.939l3.28,0.815l0.16,-0.281c0.595,-1.044 1.334,-1.976 2.188,-2.778l0.251,-0.237l-1.816,-3.018l4.36,-2.625l1.897,3.152l0.313,-0.087c1.016,-0.281 2.076,-0.425 3.159,-0.425c0.047,0 0.096,0 0.144,0.001l0.338,0.004l0.91,-3.661l4.94,1.228l-0.924,3.716l0.291,0.158c0.972,0.526 1.852,1.175 2.624,1.927l0.237,0.23l3.27,-1.969l2.625,4.361l-3.204,1.928l0.106,0.324c0.345,1.059 0.544,2.17 0.58,3.31l0.01,0.323l3.524,0.876l-1.331,5.354l0.416,0.103l0.103,-0.415l-0.103,0.415Z" style="fill:#313592;fill-rule:nonzero;"/><path d="M34.54,103.972c-0.113,0.143 -0.243,0.267 -0.382,0.379c-0.396,0.32 -0.881,0.505 -1.387,0.541c-0.147,0.01 -0.295,0.008 -0.444,-0.008c-0.279,-0.032 -0.559,-0.101 -0.825,-0.233c-0.242,-0.119 -0.446,-0.28 -0.629,-0.458c-0.099,-0.096 -0.188,-0.199 -0.268,-0.309c-0.323,-0.441 -0.496,-0.975 -0.482,-1.523c0.003,-0.152 0.023,-0.303 0.056,-0.454c0.042,-0.198 0.1,-0.394 0.193,-0.584c0.132,-0.266 0.311,-0.492 0.514,-0.686c0.137,-0.132 0.283,-0.249 0.443,-0.345c0.368,-0.219 0.787,-0.333 1.217,-0.343c0.217,-0.005 0.435,0.01 0.651,0.064c0.171,0.042 0.34,0.1 0.503,0.182c0.19,0.092 0.355,0.213 0.509,0.344c0.178,0.152 0.329,0.326 0.455,0.516c0.215,0.326 0.356,0.693 0.401,1.08c0.025,0.212 0.015,0.426 -0.016,0.641c-0.036,0.253 -0.1,0.504 -0.219,0.746c-0.081,0.164 -0.18,0.313 -0.29,0.45Zm3.233,2.162l1.057,-2.142l-1.346,-0.664c0.087,-0.466 0.104,-0.936 0.058,-1.398l1.456,-0.494l-0.768,-2.262l-1.49,0.506c-0.247,-0.375 -0.548,-0.716 -0.896,-1.017l0.698,-1.414l-2.142,-1.057l-0.687,1.391c-0.459,-0.106 -0.923,-0.146 -1.381,-0.12l-0.488,-1.439l-2.262,0.767l0.465,1.372c-0.419,0.251 -0.802,0.565 -1.136,0.936l-1.256,-0.619l-1.056,2.142l1.184,0.584c-0.131,0.517 -0.172,1.043 -0.136,1.559l-1.216,0.413l0.768,2.262l1.182,-0.401c0.28,0.453 0.634,0.862 1.056,1.211l-0.55,1.116l2.142,1.057l0.562,-1.139c0.525,0.109 1.057,0.133 1.576,0.073l0.418,1.234l2.262,-0.768l-0.441,-1.3c0.407,-0.279 0.777,-0.619 1.092,-1.017l1.275,0.628Z" style="fill:#313592;fill-rule:nonzero;"/><path d="M161.008,104.204c-0.114,0.142 -0.243,0.267 -0.382,0.379c-0.398,0.319 -0.882,0.505 -1.387,0.54c-0.148,0.01 -0.296,0.009 -0.444,-0.008c-0.28,-0.031 -0.559,-0.101 -0.826,-0.232c-0.241,-0.12 -0.445,-0.28 -0.628,-0.459c-0.099,-0.096 -0.189,-0.199 -0.269,-0.309c-0.322,-0.441 -0.495,-0.975 -0.482,-1.523c0.004,-0.152 0.024,-0.303 0.056,-0.454c0.042,-0.198 0.101,-0.394 0.194,-0.584c0.131,-0.266 0.311,-0.491 0.514,-0.686c0.136,-0.131 0.283,-0.249 0.443,-0.344c0.367,-0.219 0.787,-0.333 1.217,-0.343c0.216,-0.005 0.434,0.01 0.651,0.063c0.17,0.043 0.339,0.101 0.503,0.182c0.189,0.093 0.355,0.213 0.509,0.344c0.178,0.152 0.329,0.326 0.454,0.517c0.216,0.325 0.357,0.693 0.402,1.08c0.025,0.211 0.015,0.426 -0.016,0.641c-0.037,0.252 -0.101,0.504 -0.22,0.746c-0.081,0.163 -0.18,0.312 -0.289,0.45Zm3.233,2.162l1.057,-2.142l-1.346,-0.664c0.086,-0.467 0.104,-0.937 0.057,-1.398l1.456,-0.494l-0.767,-2.262l-1.49,0.505c-0.248,-0.374 -0.548,-0.716 -0.897,-1.016l0.698,-1.415l-2.142,-1.057l-0.687,1.391c-0.458,-0.105 -0.923,-0.146 -1.38,-0.12l-0.489,-1.439l-2.262,0.768l0.466,1.372c-0.419,0.25 -0.802,0.564 -1.137,0.936l-1.255,-0.62l-1.057,2.143l1.185,0.584c-0.131,0.517 -0.172,1.042 -0.137,1.558l-1.215,0.413l0.767,2.262l1.183,-0.401c0.279,0.452 0.633,0.863 1.056,1.212l-0.55,1.115l2.142,1.057l0.561,-1.139c0.526,0.11 1.057,0.133 1.576,0.073l0.419,1.234l2.262,-0.767l-0.441,-1.301c0.407,-0.278 0.777,-0.618 1.092,-1.017l1.275,0.629Z" style="fill:#313592;fill-rule:nonzero;"/><path d="M152.986,123.737c-0.114,0.142 -0.243,0.267 -0.382,0.378c-0.397,0.32 -0.881,0.506 -1.387,0.541c-0.148,0.011 -0.295,0.009 -0.444,-0.008c-0.279,-0.031 -0.559,-0.101 -0.826,-0.232c-0.241,-0.12 -0.445,-0.28 -0.628,-0.458c-0.099,-0.097 -0.188,-0.2 -0.269,-0.309c-0.322,-0.442 -0.495,-0.976 -0.481,-1.524c0.003,-0.151 0.023,-0.303 0.055,-0.454c0.042,-0.198 0.101,-0.394 0.194,-0.583c0.132,-0.267 0.311,-0.493 0.514,-0.687c0.137,-0.131 0.283,-0.249 0.443,-0.345c0.367,-0.219 0.787,-0.332 1.216,-0.343c0.217,-0.004 0.435,0.011 0.652,0.065c0.17,0.042 0.339,0.1 0.503,0.181c0.189,0.093 0.355,0.213 0.509,0.344c0.178,0.152 0.329,0.326 0.454,0.517c0.216,0.325 0.357,0.693 0.402,1.08c0.025,0.211 0.014,0.426 -0.016,0.641c-0.037,0.253 -0.101,0.504 -0.22,0.745c-0.081,0.165 -0.179,0.313 -0.289,0.451Zm3.233,2.162l1.057,-2.142l-1.346,-0.664c0.086,-0.467 0.104,-0.937 0.057,-1.398l1.457,-0.494l-0.768,-2.262l-1.49,0.505c-0.248,-0.374 -0.548,-0.716 -0.897,-1.016l0.698,-1.415l-2.142,-1.057l-0.687,1.392c-0.458,-0.107 -0.923,-0.146 -1.38,-0.121l-0.489,-1.439l-2.262,0.768l0.466,1.372c-0.419,0.25 -0.802,0.564 -1.136,0.935l-1.256,-0.619l-1.057,2.143l1.185,0.584c-0.131,0.517 -0.173,1.042 -0.137,1.558l-1.215,0.413l0.767,2.262l1.182,-0.401c0.281,0.453 0.635,0.863 1.057,1.212l-0.551,1.115l2.143,1.057l0.562,-1.138c0.525,0.109 1.056,0.132 1.575,0.072l0.418,1.234l2.262,-0.767l-0.441,-1.301c0.408,-0.278 0.778,-0.618 1.093,-1.017l1.275,0.629Z" style="fill:#1cc3f4;fill-rule:nonzero;"/><path d="M101.176,55.046c-0.113,0.142 -0.243,0.267 -0.382,0.379c-0.398,0.32 -0.881,0.505 -1.387,0.54c-0.147,0.011 -0.295,0.009 -0.444,-0.008c-0.28,-0.031 -0.559,-0.101 -0.826,-0.232c-0.24,-0.119 -0.445,-0.28 -0.628,-0.459c-0.099,-0.096 -0.188,-0.198 -0.269,-0.308c-0.322,-0.442 -0.494,-0.976 -0.481,-1.524c0.004,-0.151 0.023,-0.303 0.055,-0.454c0.043,-0.198 0.101,-0.394 0.194,-0.583c0.132,-0.267 0.311,-0.492 0.514,-0.687c0.137,-0.131 0.284,-0.249 0.444,-0.344c0.367,-0.219 0.786,-0.333 1.215,-0.343c0.218,-0.005 0.435,0.01 0.652,0.063c0.17,0.043 0.339,0.101 0.504,0.182c0.188,0.093 0.354,0.213 0.508,0.344c0.178,0.152 0.329,0.327 0.455,0.516c0.215,0.326 0.356,0.694 0.402,1.081c0.024,0.211 0.014,0.426 -0.017,0.641c-0.036,0.253 -0.1,0.504 -0.22,0.746c-0.08,0.164 -0.179,0.312 -0.289,0.45Zm3.233,2.162l1.057,-2.142l-1.346,-0.664c0.087,-0.467 0.104,-0.937 0.058,-1.398l1.455,-0.494l-0.767,-2.262l-1.49,0.505c-0.247,-0.374 -0.548,-0.716 -0.896,-1.016l0.698,-1.415l-2.143,-1.057l-0.686,1.391c-0.459,-0.105 -0.923,-0.145 -1.382,-0.12l-0.487,-1.439l-2.262,0.768l0.465,1.372c-0.419,0.25 -0.802,0.564 -1.136,0.935l-1.255,-0.619l-1.057,2.143l1.184,0.584c-0.131,0.517 -0.172,1.042 -0.136,1.559l-1.216,0.412l0.768,2.262l1.182,-0.401c0.28,0.453 0.634,0.863 1.056,1.212l-0.55,1.115l2.143,1.057l0.561,-1.139c0.526,0.11 1.056,0.133 1.576,0.074l0.418,1.233l2.262,-0.768l-0.441,-1.3c0.408,-0.278 0.777,-0.618 1.092,-1.017l1.275,0.629Z" style="fill:#313592;fill-rule:nonzero;"/><path d="M144.221,136.202l-96.443,0c-1.642,0 -2.974,-1.332 -2.974,-2.974l0,-61.173c0,-1.642 1.332,-2.973 2.974,-2.973l96.443,0c1.643,0 2.975,1.331 2.975,2.973l0,61.173c0,1.642 -1.332,2.974 -2.975,2.974Z" style="fill:#3b469d;fill-rule:nonzero;"/><path d="M141.908,133.063l-91.816,0c-0.878,0 -1.59,-0.712 -1.59,-1.589l0,-57.828c0,-0.878 0.712,-1.59 1.59,-1.59l91.816,0c0.878,0 1.59,0.712 1.59,1.59l0,57.828c0,0.877 -0.712,1.589 -1.59,1.589Z" style="fill:#25265e;fill-rule:nonzero;"/><rect x="85.153" y="135.991" width="21.694" height="13.332" style="fill:#3b469d;fill-rule:nonzero;"/><rect x="85.138" y="136.217" width="21.683" height="4.746" style="fill:#2e337f;fill-rule:nonzero;"/><rect x="80.055" y="147.955" width="31.89" height="1.95" style="fill:#3b469d;fill-rule:nonzero;"/><rect x="50.586" y="74.001" width="90.764" height="2.631" style="fill:#313592;fill-rule:nonzero;"/><rect x="51.863" y="74.769" width="4.453" height="1.081" style="fill:#1cc3f4;fill-rule:nonzero;"/><rect x="58.538" y="83.962" width="78.034" height="1.148" style="fill:#1cc3f4;fill-rule:nonzero;"/><rect x="71.047" y="97.768" width="66.052" height="0.986" style="fill:#1cc3f4;fill-rule:nonzero;"/><rect x="71.047" y="119.341" width="66.052" height="0.986" style="fill:#1cc3f4;fill-rule:nonzero;"/><rect x="71.047" y="102.191" width="66.052" height="0.986" style="fill:#1cc3f4;fill-rule:nonzero;"/><rect x="58.538" y="88.236" width="25.647" height="1.066" style="fill:#a661a7;fill-rule:nonzero;"/><rect x="58.538" y="123.97" width="25.647" height="1.067" style="fill:#1cc3f4;fill-rule:nonzero;"/><rect x="58.538" y="114.566" width="25.647" height="1.067" style="fill:#a661a7;fill-rule:nonzero;"/><rect x="58.538" y="92.61" width="25.647" height="1.066" style="fill:#a661a7;fill-rule:nonzero;"/><rect x="131.74" y="92.61" width="4.798" height="1.066" style="fill:#a661a7;fill-rule:nonzero;"/><rect x="89.455" y="88.236" width="25.648" height="1.066" style="fill:#1cc3f4;fill-rule:nonzero;"/><rect x="89.889" y="110.37" width="25.648" height="1.067" style="fill:#1cc3f4;fill-rule:nonzero;"/><rect x="89.889" y="124.115" width="25.648" height="1.066" style="fill:#1cc3f4;fill-rule:nonzero;"/><rect x="71.107" y="106.47" width="25.648" height="1.067" style="fill:#a661a7;fill-rule:nonzero;"/><rect x="25.488" y="55.21" width="4.799" height="1.066" style="fill:#a661a7;fill-rule:nonzero;"/><rect x="33.063" y="55.2" width="28.076" height="1.076" style="fill:#313592;fill-rule:nonzero;"/><rect x="25.905" y="45.509" width="28.076" height="1.076" style="fill:#313592;fill-rule:nonzero;"/><rect x="25.905" y="48.482" width="28.076" height="1.077" style="fill:#313592;fill-rule:nonzero;"/><rect x="63.113" y="55.198" width="4.773" height="1.078" style="fill:#313592;fill-rule:nonzero;"/><rect x="25.488" y="58.448" width="4.799" height="1.067" style="fill:#a661a7;fill-rule:nonzero;"/><rect x="33.063" y="58.438" width="28.076" height="1.077" style="fill:#313592;fill-rule:nonzero;"/><rect x="25.488" y="61.687" width="4.799" height="1.067" style="fill:#a661a7;fill-rule:nonzero;"/><rect x="33.063" y="61.677" width="17.718" height="1.077" style="fill:#313592;fill-rule:nonzero;"/><rect x="25.488" y="64.925" width="4.799" height="1.067" style="fill:#a661a7;fill-rule:nonzero;"/><rect x="33.063" y="64.916" width="17.718" height="1.076" style="fill:#313592;fill-rule:nonzero;"/><path d="M71.058,52.282l0,-0.214l-48.185,0l0,-9.146l47.971,0l0,9.36l0.214,0l0,-0.214l0,0.214l0.214,0l0,-9.787l-48.827,0l0,10.001l48.827,0l0,-0.214l-0.214,0Z" style="fill:#a661a7;fill-rule:nonzero;"/><path d="M60.227,41.096l2.312,0l0,9.47l-2.244,0l0,0.428l2.671,0l0,-10.325l-2.739,0l0,0.427Z" style="fill:#a661a7;fill-rule:nonzero;"/><path d="M22.583,66.049l-2.312,0l0,-9.47l2.244,0l0,-0.428l-2.671,0l0,10.326l2.739,0l0,-0.428Z" style="fill:#1cc3f4;fill-rule:nonzero;"/><rect x="130.231" y="142.107" width="28.076" height="1.077" style="fill:#313592;fill-rule:nonzero;"/><rect x="130.231" y="145.08" width="28.076" height="1.077" style="fill:#313592;fill-rule:nonzero;"/><rect x="141.091" y="48.765" width="17.718" height="1.077" style="fill:#313592;fill-rule:nonzero;"/><rect x="141.091" y="52.004" width="17.718" height="1.077" style="fill:#313592;fill-rule:nonzero;"/><rect x="152.514" y="56.563" width="6.294" height="1.076" style="fill:#313592;fill-rule:nonzero;"/><rect x="152.514" y="59.802" width="6.294" height="1.077" style="fill:#313592;fill-rule:nonzero;"/><rect x="152.514" y="63.285" width="6.294" height="1.077" style="fill:#313592;fill-rule:nonzero;"/><rect x="161.506" y="63.285" width="6.294" height="1.077" style="fill:#313592;fill-rule:nonzero;"/><rect x="152.514" y="66.524" width="6.294" height="1.076" style="fill:#313592;fill-rule:nonzero;"/><rect x="152.514" y="70.007" width="6.294" height="1.077" style="fill:#313592;fill-rule:nonzero;"/><rect x="161.205" y="70.007" width="6.294" height="1.077" style="fill:#313592;fill-rule:nonzero;"/><rect x="152.514" y="73.246" width="6.294" height="1.076" style="fill:#313592;fill-rule:nonzero;"/><rect x="80.964" y="35.523" width="17.718" height="1.076" style="fill:#1cc3f4;fill-rule:nonzero;"/><rect x="80.964" y="38.761" width="17.718" height="1.076" style="fill:#1cc3f4;fill-rule:nonzero;"/><path d="M175.384,148.88l0,-0.214l-48.185,0l0,-9.145l47.971,0l0,9.359l0.214,0l0,-0.214l0,0.214l0.214,0l0,-9.787l-48.826,0l0,10.001l48.826,0l0,-0.214l-0.214,0Z" style="fill:#a661a7;fill-rule:nonzero;"/><path d="M15.745,154.287l160.51,0c0.236,0 0.428,-0.192 0.428,-0.428c0,-0.237 -0.192,-0.428 -0.428,-0.428l-160.51,0c-0.236,0 -0.428,0.191 -0.428,0.428c0,0.236 0.192,0.428 0.428,0.428Z" style="fill:#313592;fill-rule:nonzero;"/><path d="M21.657,159.066l148.686,0c0.236,0 0.427,-0.191 0.427,-0.427c0,-0.237 -0.191,-0.428 -0.427,-0.428l-148.686,0c-0.236,0 -0.427,0.191 -0.427,0.428c0,0.236 0.191,0.427 0.427,0.427Z" style="fill:#313592;fill-rule:nonzero;"/><path d="M114.529,42.109l0,-0.213l-36.844,0l0,-8.535l36.63,0l0,8.748l0.214,0l0,-0.213l0,0.213l0.214,0l0,-9.175l-37.486,0l0,9.389l37.486,0l0,-0.214l-0.214,0Z" style="fill:#1cc3f4;fill-rule:nonzero;"/><path d="M149.945,64.312l0,-0.214l-8.126,0l0,-7.309l7.912,0l0,7.523l0.214,0l0,-0.214l0,0.214l0.214,0l0,-7.951l-8.768,0l0,8.165l8.768,0l0,-0.214l-0.214,0Z" style="fill:#1cc3f4;fill-rule:nonzero;"/><path d="M143.407,60.022l1.823,2.591l3.066,-3.716l-0.33,-0.272l-2.709,3.283l-1.501,-2.133l-0.349,0.247Z" style="fill:#1cc3f4;fill-rule:nonzero;"/><path d="M141.55,131.033l-50.866,0l0,-4.039l-30.945,0l0,4.039l-9.731,0l9.524,-5.997l24.653,0l0,-1.066l-22.96,0l13.238,-8.337l9.722,0l0,-1.067l-8.028,0l11.162,-7.029l9.436,0l0,-1.067l-7.743,0l5.228,-3.293l42.859,0l0,-0.986l-41.292,0l5.456,-3.437l35.836,0l0,-0.986l-34.269,0l20.099,-12.658l9.243,0l0,7.5l-0.432,0l0,1.066l0.432,0l0,1.698l9.378,0l0,35.659Zm-51.661,-6.918l0,1.066l25.647,0l0,-1.066l-25.647,0Zm-18.842,-4.774l0,0.986l66.052,0l0,-0.986l-66.052,0Zm18.842,-8.971l0,1.067l25.647,0l0,-1.067l-25.647,0Zm42.283,-26.408l-7.42,0l11.64,-7.331l4.958,0l0,-2.63l-0.781,0l0.981,-0.618l0,8.972l-9.378,0l0,1.607Z" style="fill:#312e79;fill-rule:nonzero;"/><path d="M141.35,76.631l-4.958,0l4.177,-2.63l0.781,0l0,2.63Z" style="fill:#47499e;fill-rule:nonzero;"/><path d="M132.172,85.11l-9.243,0l1.823,-1.148l7.42,0l0,1.148Z" style="fill:#2ec5f1;fill-rule:nonzero;"/><path d="M137.099,98.754l-35.836,0l1.567,-0.986l34.269,0l0,0.986Z" style="fill:#2ec5f1;fill-rule:nonzero;"/><rect x="71.047" y="119.341" width="66.052" height="0.986" style="fill:#2ec5f1;fill-rule:nonzero;"/><path d="M137.099,103.177l-42.859,0l1.567,-0.986l41.292,0l0,0.986Z" style="fill:#2ec5f1;fill-rule:nonzero;"/><path d="M84.185,125.036l-24.653,0l1.693,-1.066l22.96,0l0,1.066Z" style="fill:#2ec5f1;fill-rule:nonzero;"/><path d="M84.185,115.633l-9.722,0l1.694,-1.067l8.028,0l0,1.067Z" style="fill:#ad6cad;fill-rule:nonzero;"/><rect x="131.74" y="92.61" width="0.432" height="1.066" style="fill:#ad6cad;fill-rule:nonzero;"/><rect x="89.889" y="110.37" width="25.648" height="1.067" style="fill:#2ec5f1;fill-rule:nonzero;"/><rect x="89.889" y="124.115" width="25.648" height="1.066" style="fill:#2ec5f1;fill-rule:nonzero;"/><path d="M96.755,107.537l-9.436,0l1.693,-1.067l7.743,0l0,1.067Z" style="fill:#ad6cad;fill-rule:nonzero;"/><rect x="21.861" y="78.47" width="22.943" height="11.348" style="fill:#312e79;fill-rule:nonzero;"/><rect x="44.804" y="78.47" width="3.698" height="11.348" style="fill:#5054a4;fill-rule:nonzero;"/><rect x="48.502" y="78.47" width="4.304" height="11.348" style="fill:#312e79;fill-rule:nonzero;"/><path d="M163.117,95.374l-8.217,0c0.002,-0.001 0.003,-0.001 0.004,-0.002c0.104,-0.055 0.143,-0.185 0.088,-0.289c-0.039,-0.072 -0.113,-0.113 -0.189,-0.113c-0.034,0 -0.069,0.008 -0.101,0.025c-0.194,0.104 -0.384,0.214 -0.568,0.331c-0.021,0.013 -0.039,0.029 -0.053,0.048l-6.885,0l0,-13.019l15.921,0l0,13.019Z" style="fill:#312e79;fill-rule:nonzero;"/><path d="M154.9,95.374l-0.819,0c0.014,-0.019 0.032,-0.035 0.053,-0.048c0.184,-0.117 0.374,-0.227 0.568,-0.331c0.032,-0.017 0.067,-0.025 0.101,-0.025c0.076,0 0.15,0.041 0.189,0.113c0.055,0.104 0.016,0.234 -0.088,0.289c-0.001,0.001 -0.002,0.001 -0.004,0.002Z" style="fill:#5054a4;fill-rule:nonzero;"/><rect x="143.498" y="82.355" width="3.698" height="13.019" style="fill:#5054a4;fill-rule:nonzero;"/><rect x="141.55" y="82.355" width="1.948" height="13.019" style="fill:#312e79;fill-rule:nonzero;"/><path d="M141.55,95.374l-9.378,0l0,-1.698l4.366,0l0,-1.066l-4.366,0l0,-7.5l4.399,0l0,-1.148l-4.399,0l0,-1.607l9.378,0l0,13.019Z" style="fill:#44418b;fill-rule:nonzero;"/><rect x="132.172" y="83.962" width="4.399" height="1.148" style="fill:#44c7ee;fill-rule:nonzero;"/><rect x="132.172" y="92.61" width="4.366" height="1.066" style="fill:#b575b2;fill-rule:nonzero;"/><path d="M148.286,49.853l-37.71,0l0,-9.749l29.175,0l0,-2.475l8.535,0l0,11.136l-7.195,0l0,1.077l7.195,0l0,0.011Z" style="fill:#312e79;fill-rule:nonzero;"/><rect x="141.091" y="48.765" width="7.195" height="1.077" style="fill:#47499e;fill-rule:nonzero;"/><path d="M85.153,143.56l-25.414,0l0,-5.627c0.015,-0.017 0.028,-0.037 0.037,-0.06c0.161,-0.404 0.307,-0.81 0.438,-1.218c0.036,-0.113 -0.025,-0.233 -0.138,-0.269c-0.022,-0.007 -0.044,-0.011 -0.065,-0.011c-0.091,0 -0.175,0.058 -0.204,0.149c-0.022,0.069 -0.045,0.137 -0.068,0.206l0,-0.528l25.414,0l0,0.015l-0.015,0l0,4.746l0.015,0l0,2.597Z" style="fill:#312e79;fill-rule:nonzero;"/><path d="M59.739,137.933l0,-1.203c0.023,-0.069 0.046,-0.137 0.068,-0.206c0.029,-0.091 0.113,-0.149 0.204,-0.149c0.021,0 0.043,0.004 0.065,0.011c0.113,0.036 0.174,0.156 0.138,0.269c-0.131,0.408 -0.277,0.814 -0.438,1.218c-0.009,0.023 -0.022,0.043 -0.037,0.06Z" style="fill:#5054a4;fill-rule:nonzero;"/><path d="M85.153,136.202l-25.414,0l0,-3.139l30.945,0l0,2.928l-5.531,0l0,0.211Z" style="fill:#5054a4;fill-rule:nonzero;"/><rect x="59.739" y="131.033" width="30.945" height="2.029" style="fill:#312e79;fill-rule:nonzero;"/><path d="M90.684,143.56l-5.531,0l0,-2.597l5.531,0l0,2.597Zm0,-7.343l-5.531,0l0,-0.015l0,-0.211l5.531,0l0,0.226Z" style="fill:#5054a4;fill-rule:nonzero;"/><path d="M90.684,140.963l-5.531,0l-0.015,0l0,-4.746l5.546,0l0,4.746Z" style="fill:#3d4494;fill-rule:nonzero;"/><rect x="59.739" y="126.994" width="30.945" height="4.04" style="fill:#44418b;fill-rule:nonzero;"/></g><text x="84.395px" y="166.677px" style="font-family:'ClenontecLogo-Logo', 'Clenontec Logo', sans-serif;font-weight:300;font-size:3.324px;fill:#312e79;">www<tspan x="91.16px " y="166.677px ">.</tspan>fr<tspan x="93.999px " y="166.677px ">e</tspan>epik.com</text></svg>